General
Complete name                    : Miami.Vice(HINDI DUBB).DVDRip.aaaevilacharya.mkv
Format                           : Matroska
File size                        : 695 MiB
Duration                         : 2h 5mn
Overall bit rate                 : 773 Kbps
Encoded date                     : UTC 2010-09-26 22:07:51
Writing application              : mkvmerge 
Writing library                  : libebml v0.7.7 + libmatroska v0.8.1

Video
ID                               : 1
Format                           : MPEG-4 Visual
Format profile                   : Advanced Simple@L5
Format settings, BVOP            : Yes
Format settings, QPel            : No
Format settings, GMC             : No warppoints
Format settings, Matrix          : Custom
Codec ID                         : XVID
Codec ID/Hint                    : XviD
Duration                         : 2h 5mn
Bit rate                         : 630 Kbps
Width                            : 720 pixels
Height                           : 350 pixels
Display aspect ratio             : 2.057
Original display aspect ratio    : 4:3
Frame rate                       : 25.000 fps
Color space                      : YUV
Chroma subsampling               : 4:2:0
Bit depth                        : 8 bits
Scan type                        : Progressive
Bits/(Pixel*Frame)               : 0.128
Stream size                      : 566 MiB (81%)
Title                            : aaaevilacharya
Writing library                  : XviD 1.1.2 (UTC 2006-11-01)
Language                         : Hindi

Audio
ID                               : 2
Format                           : MPEG Audio
Format version                   : Version 1
Format profile                   : Layer 3
Mode                             : Joint stereo
Mode extension                   : MS Stereo
Codec ID                         : A_MPEG/L3
Codec ID/Hint                    : MP3
Duration                         : 2h 5mn
Bit rate mode                    : Constant
Bit rate                         : 128 Kbps
Channel(s)                       : 2 channels
Sampling rate                    : 48.0 KHz
Stream size                      : 115 MiB (17%)
Title                            : aaaevilacharya
Writing library                  : LAME3.97 
Encoding settings                : -m j -V 4 -q 2 -lowpass 17 -b 128
Language                         : Hindi
